<?xml version="1.0" standalone="no"?><!DOCTYPE svg PUBLIC "-//W3C//DTD SVG 1.1//EN" "http://www.w3.org/Graphics/SVG/1.1/DTD/svg11.dtd"><svg t="1559024516087" class="icon" style="" viewBox="0 0 1024 1024" version="1.1" xmlns="http://www.w3.org/2000/svg" p-id="929" xmlns:xlink="http://www.w3.org/1999/xlink" width="200" height="200"><defs><style type="text/css"></style></defs><path d="M661.059677 497.893586c30.725711-38.035917 49.229671-86.351813 49.22967-139.008143 0-106.226436-74.929615-194.862688-174.75962-216.222197-99.830006 21.245287-174.759621 109.995761-174.759621 216.222197 0 52.199442 18.161294 100.172672 48.315895 137.980145-98.459342 52.770552-182.298271 170.190742-182.298271 399.548467h615.085332s36.551032-292.408254-180.813385-398.520469z" fill="#FEEB00" p-id="930"></path><path d="M841.873062 913.547351H134.267931c-9.480424 0-17.133296-7.652872-17.133296-17.133296 0-241.23681 91.149136-353.060123 174.302733-404.802677-26.156832-39.063915-40.434579-85.438037-40.434579-132.725935 0-131.35527 106.797546-238.152817 238.152816-238.152816s238.152817 106.797546 238.152817 238.152816c0 47.516341-14.391969 94.004685-40.777245 133.182822 44.203904 25.128834 80.754936 59.966537 108.739319 103.599331 25.128834 39.178137 43.40435 85.552259 54.255438 137.751701 18.389738 88.179364 9.480424 161.96676 9.137758 165.050753-0.913776 8.566648-8.223982 15.077301-16.79063 15.077301z m-690.243391-34.266592h674.480758c1.599108-25.243056 2.627105-79.498494-10.051533-139.807697-22.958617-108.625098-77.556721-184.811154-162.423648-226.159509-4.683101-2.284439-8.10976-6.624875-9.25198-11.650642-1.14222-5.139989 0.114222-10.3942 3.426659-14.50619 29.240825-36.094144 45.460346-81.668712 45.460346-128.271278 0-112.394423-91.491801-203.886224-203.886224-203.886224s-203.886224 91.491801-203.886224 203.886224c0 46.831009 15.419967 90.80647 44.660792 127.24328 3.198215 3.997769 4.454657 9.137758 3.426659 14.163525-1.027998 5.025767-4.226213 9.25198-8.68087 11.650641-77.328277 41.348355-168.9343 138.665477-173.274735 367.33787z" p-id="931"></path><path d="M669.283659 791.329838h-43.061685c-17.019074 0-30.839933-13.820859-30.839933-30.839933v-86.922922c0-17.019074 13.820859-30.839933 30.839933-30.839933h43.061685c17.019074 0 30.839933 13.820859 30.839933 30.839933v86.922922c0 17.019074-13.935081 30.839933-30.839933 30.839933z m-39.635025-34.266592h36.208365v-80.069604h-36.208365v80.069604z" p-id="932"></path></svg>