<?xml version="1.0" standalone="no"?><!DOCTYPE svg PUBLIC "-//W3C//DTD SVG 1.1//EN" "http://www.w3.org/Graphics/SVG/1.1/DTD/svg11.dtd"><svg t="1559024658278" class="icon" style="" viewBox="0 0 1024 1024" version="1.1" xmlns="http://www.w3.org/2000/svg" p-id="1047" xmlns:xlink="http://www.w3.org/1999/xlink" width="200" height="200"><defs><style type="text/css"></style></defs><path d="M346.448943 292.391455h-0.343586v-10.078515h-17.064758c0-1.946986 0-3.893972-0.114528-6.4136l-0.687172-17.866458h36.076502l-0.687171 17.866458c-0.114529 2.4051-0.114529 4.466614-0.114529 6.4136h-17.064758v10.078515zM613.300526 292.391455h-0.343586v-10.078515h-17.064758c0-1.946986 0-3.893972-0.114528-6.4136l-0.687172-17.866458h36.076502l-0.687172 17.866458c-0.114529 2.4051-0.114529 4.466614-0.114528 6.4136h-17.064758v10.078515zM479.874734 292.391455h-0.343585v-10.078515h-17.064758c0-1.946986 0-3.893972-0.114529-6.4136l-0.687171-17.866458h36.076501l-0.687171 17.866458c-0.114529 2.4051-0.114529 4.466614-0.114529 6.4136H479.874734v10.078515z" p-id="1048"></path><path d="M279.564255 442.080304c36.878202 0 66.77016-48.445588 66.770159-108.344033 0-2.4051-0.114529-4.695672-0.114528-7.100772h-109.718376c-8.704172 0-16.721172 2.519629-23.592887 6.986244v0.114528c-0.114529 59.898445 29.77743 108.344033 66.655632 108.344033zM412.990046 442.080304c36.878202 0 66.77016-48.445588 66.77016-108.344033 0-2.4051-0.114529-4.695672-0.114529-7.100772H346.448943c-0.114529 2.290572-0.114529 4.695672-0.114529 7.100772 0 59.898445 29.77743 108.344033 66.655632 108.344033z" fill="#FEEB00" p-id="1049"></path><path d="M546.415837 442.080304c36.878202 0 66.77016-48.445588 66.77016-108.344033 0-2.4051-0.114529-4.695672-0.114528-7.100772H479.874734c-0.114529 2.290572-0.114529 4.695672-0.114528 7.100772 0 59.898445 29.891958 108.344033 66.655631 108.344033zM679.841628 442.080304c36.878202 0 66.77016-48.445588 66.77016-108.344033v-0.114528c-6.871715-4.352086-14.888715-6.986243-23.592886-6.986244h-109.718376c-0.114529 2.290572-0.114529 4.695672-0.114529 7.100772 0 59.898445 29.891958 108.344033 66.655631 108.344033z" fill="#FEEB00" p-id="1050"></path><path d="M279.564255 407.721731c-47.071245 0-83.949446-55.088245-83.949447-125.523319v-9.505872l7.902472-5.039257c9.849458-6.299072 21.187787-9.6204 32.869701-9.620401h126.210491l0.687172 16.492115c0.114529 2.977743 0.114529 5.382843 0.114528 7.787943 0.114529 70.320546-36.763673 125.408791-83.834917 125.408791z m-49.13276-114.643104C233.638295 340.951571 257.689296 373.363158 279.564255 373.363158c21.874958 0 46.155016-32.755173 49.247287-80.971703h-92.424561c-2.061514 0-4.0085 0.229057-5.955486 0.687172z" p-id="1051"></path><path d="M412.990046 407.721731c-47.071245 0-83.949446-55.088245-83.949447-125.523319 0-2.4051 0-4.8102 0.114529-7.787943l0.687172-16.492115h166.180964l0.687171 16.492115c0.114529 2.977743 0.114529 5.382843 0.114529 7.787943 0.114529 70.435074-36.763673 125.52332-83.834918 125.523319z m-49.247288-115.330276c2.977743 48.216531 27.257801 80.971703 49.247288 80.971703 21.874958 0 46.155016-32.755173 49.247288-80.971703h-98.494576z" p-id="1052"></path><path d="M546.415837 407.721731c-47.071245 0-83.949446-55.088245-83.949446-125.523319 0-2.4051 0-4.8102 0.114528-7.787943l0.687172-16.492115h166.180964l0.687171 16.492115c0.114529 2.977743 0.114529 5.382843 0.114529 7.787943 0.114529 70.435074-36.763673 125.52332-83.834918 125.523319z m-49.247288-115.330276c2.977743 48.216531 27.257801 80.971703 49.247288 80.971703 21.874958 0 46.155016-32.755173 49.247288-80.971703h-98.494576z" p-id="1053"></path><path d="M679.841628 407.721731c-47.071245 0-83.949446-55.088245-83.949446-125.523319 0-2.4051 0-4.8102 0.114529-7.787943l0.687171-16.492115h126.210491c11.681915 0 23.020244 3.321329 32.869701 9.6204l7.902472 5.039257v9.620401c0.114529 70.435074-36.763673 125.52332-83.834918 125.523319z m-49.132759-115.330276c2.977743 48.216531 27.257801 80.971703 49.247288 80.971703 21.874958 0 45.925959-32.526116 49.132759-80.284531-1.946986-0.458114-4.0085-0.687171-5.955486-0.687172h-92.424561z" p-id="1054"></path><path d="M749.475003 561.419081H520.188793c-12.827201 0-23.249301 8.475115-23.249301 19.011743v248.297954c0 10.4221 10.4221 19.011744 23.249301 19.011743h229.28621c12.827201 0 23.249301-8.475115 23.249301-19.011743V580.430824c0-10.4221-10.4221-19.011744-23.249301-19.011743z" fill="#FEEB00" p-id="1055"></path><path d="M691.638072 864.805279H200.997651c-17.064758 0-30.922716-13.857958-30.922715-30.922716V288.955598c0-17.064758 13.857958-30.922716 30.922715-30.922716h557.410581c17.064758 0 30.922716 13.857958 30.922715 30.922716v385.732245h-97.692875v190.117436z m-487.204563-34.358573h452.84599V674.1152c0-18.668158 15.117772-33.78593 33.78593-33.78593h63.906945V292.391455H204.433509v538.055251z" p-id="1056"></path><path d="M854.497707 925.276367H691.065429c-18.668158 0-33.78593-15.117772-33.78593-33.78593V674.1152c0-18.668158 15.117772-33.78593 33.78593-33.78593h163.432278c18.668158 0 33.78593 15.117772 33.78593 33.78593v217.375237c0 18.668158-15.232301 33.78593-33.78593 33.78593z m-162.859635-34.358573h162.286992V674.687843H691.638072v216.229951z" p-id="1057"></path><path d="M479.760206 157.133207c-168.586064 0-305.333184 27.486858-306.134884 61.501845h612.269768c-0.8017-34.014987-137.54882-61.501845-306.134884-61.501845z" fill="#FEEB00" p-id="1058"></path><path d="M803.303434 228.942624h-647.086456l0.229057-17.408344c0.458114-35.045744 35.732916-65.052231 101.930433-86.698132 59.440331-19.355329 138.006934-30.006487 221.269209-30.006487S641.474555 105.480819 700.914886 124.836148c66.197517 21.645901 101.472319 51.537859 101.930433 86.698132l0.458115 17.408344z m-603.794654-34.358573h560.388323c-10.880215-11.681915-32.526116-24.96723-69.518846-36.99273-56.119002-18.324572-130.906163-28.403087-210.618051-28.403087s-154.613578 10.078515-210.618052 28.403087c-37.107259 12.025501-58.75316 25.310815-69.633374 36.99273z" p-id="1059"></path></svg>