<?xml version="1.0" standalone="no"?><!DOCTYPE svg PUBLIC "-//W3C//DTD SVG 1.1//EN" "http://www.w3.org/Graphics/SVG/1.1/DTD/svg11.dtd"><svg t="1559024581707" class="icon" style="" viewBox="0 0 1122 1024" version="1.1" xmlns="http://www.w3.org/2000/svg" p-id="1108" xmlns:xlink="http://www.w3.org/1999/xlink" width="219.140625" height="200"><defs><style type="text/css"></style></defs><path d="M595.5922 479.094474s-136.201409-61.612658-170.430135-142.922531l-0.123673 0.218805C403.995051 286.322437 356.956714 230.898157 292.247488 185.900416c-113.436167-78.888747-232.618346-110.753426-272.921291-52.798619-40.312459 57.959565-21.233607 243.729839 92.197804 322.609073 71.358998 49.635458 160.897844 51.014881 227.543019 30.784924l-0.48042 0.83241s77.637752-33.077621 155.575173 44.869313c67.135108 67.135108 295.610427 400.898483 590.659572 351.52464 205.077445-34.319102-495.198719-407.705224-489.229145-404.627683z" fill="#D9D0D0" p-id="1109"></path><path d="M537.551773 441.683561c23.0221 13.275761 32.30229 57.950051-106.938608-9.779636-72.705125-35.370318-162.243971 30.009593-290.62072-45.002498C28.244883 321.616649-10.264812 175.197993 19.326197 127.888528c29.586253-47.309465 140.430055-26.565791 252.263237 38.609585 137.961363 80.406112 168.698721 219.142807 265.962339 275.185448z" fill="#EBE2E2" p-id="1110"></path><path d="M389.577698 352.491949c-23.607166 37.753391-137.538023 60.447283-230.706179 2.178537-93.158644-58.268746-130.265132-175.424599-106.65321-213.177989 23.616679-37.753391 118.278419-21.124204 211.441819 37.144541s149.529493 136.10152 125.91757 173.854911z" fill="#D9D0D0" p-id="1111"></path><path d="M1084.826101 847.205491c-295.049145 49.373843-523.52922-284.394288-590.659572-351.529397-77.93742-77.946933-155.575173-44.864556-155.575172-44.864556l0.48042-0.83241c-66.645175 20.225201-156.184021 18.850534-227.54302-30.784925C39.332592 368.992706 5.413048 275.520125 0.637389 199.233256c-5.531963 80.358546 26.627628 197.890173 110.886612 256.477614 71.358998 49.635458 160.897844 51.014881 227.543019 30.784924l-0.48042 0.83241s77.637752-33.077621 155.575173 44.869313c67.135108 67.135108 346.144889 451.432945 590.659572 351.52464 39.846309-16.286709 41.97728-26.147208 28.111697-52.303929-6.568909 7.277647-9.527534 12.681182-28.106941 15.787263z" fill="#C2B9B9" p-id="1112"></path><path d="M1081.948339 813.095681c-15.249763 20.087258-185.304124-19.554515-298.91153-105.806529-113.593136-86.247257-378.061892-298.450137-362.812129-318.527882 15.24025-20.077745 195.459534 106.58186 418.031873 230.163924 128.091351 71.121166 258.932036 174.092742 243.691786 194.170487z" fill="#EBE2E2" p-id="1113"></path><path d="M83.526463 211.058244c23.611923-37.753391 118.278419-21.128961 211.446576 37.144542 42.210355 26.399309 76.819612 56.817973 99.908304 85.705 1.312831-41.135356-51.438222-105.368919-131.211702-155.270748-93.168157-58.268746-187.829896-74.893176-211.446575-37.144541-15.340139 24.520439-5.032517 82.52757 29.57674 136.149086-7.38705-28.306719-6.916143-52.774835 1.726657-66.583339z" fill="#BFB7B7" p-id="1114"></path><path d="M30.727845 260.474897s80.796156 195.235973 349.698093 160.165323c0 0.004757-252.363127 69.898712-349.698093-160.165323z" fill="#FFF5F5" opacity=".65" p-id="1115"></path><path d="M383.38932 629.08536s26.465902 3.091811 63.57239-50.986341l28.363799-30.07143c55.619301-76.619833 146.818212-166.049277 191.278454-211.075558C744.53187 258.029988 973.511392-32.676351 1013.842878 7.141417c40.326729 39.822526-173.916747 453.454513-251.844654 532.376557-49.031366 49.654485-119.496117 63.905355-175.067852 57.731246l0.49469 0.585066s-66.131459-14.697994-116.190257 58.263989c-43.123628 62.849383-174.401923 359.834477-414.511965 364.210578-166.895957 3.044245 330.923666-394.519839 326.66648-391.223493z" fill="#D9D0D0" p-id="1116"></path><path d="M51.357359 991.483662c240.110042-4.376102 371.388336-301.361196 414.511965-364.201065 50.058798-72.976253 116.190257-58.268746 116.190257-58.268746l-0.49469-0.589823c55.571735 6.169352 126.036486-8.072005 175.067852-57.726489 49.602162-50.234794 267.998177-407.690954 260.554047-468.599631 16.17255 62.606794-197.305108 438.804086-255.188566 497.420066-49.031366 49.654485-119.496117 63.905355-175.067852 57.731246l0.49469 0.585066s-66.131459-14.697994-116.190257 58.263989c-43.123628 62.849383-206.861182 407.139185-414.511965 364.210578-33.843439-7.001763-36.973303-14.464919-29.881164-37.144541 6.259728 4.770902 9.394349 8.590478 24.515683 8.31935z" fill="#C2B9B9" p-id="1117"></path><path d="M40.264892 963.600283c-3.172674 25.010373 149.453387-9.437158 287.547936-176.523381 90.865947-109.949556 317.072352-362.59808 298.407327-379.545961-18.665025-16.947881-160.793198 146.689783-352.92309 313.695143-121.046779 105.21195-226.163596 188.215183-233.032173 242.374199z" fill="#EBE2E2" p-id="1118"></path><path d="M1014.385134 16.297935s-198.37535 454.187035-362.793102 506.4101c-164.398725 52.237336-134.370106-2.35929-229.921336 136.895878l-1.241481-65.703362 501.253912-537.913276s96.802224-92.506985 92.702007-39.68934z" fill="#EBE2E2" p-id="1119"></path><path d="M977.706742 94.42562s-189.480448 384.954252-448.664585 458.487031c0 0 175.847939 14.997662 301.080555-200.920149 125.227858-215.91781 147.58403-257.566882 147.58403-257.566882z" fill="#FFF5F5" opacity=".65" p-id="1120"></path></svg>